# xmcd
#
# Track frame offsets: 
#        150
#        16652
#        32135
#        45121
#        56879
#        71161
#        82024
#        99394
#        116549
#        131930
#        146857
#        161914
#
# Disc length: 2339 seconds
#
# Revision: 0
# Processed by: cddbd v1.5.2PL0 Copyright (c) Steve Scherf et al.
# Submitted via: ExactAudioCopy v0.99pb5
#
DISCID=a909210c
DTITLE=Liz Talley - More Than Satisfied
DYEAR=2009
DGENRE=Country
TTITLE0=Bump Bounce Boogie
TTITLE1=What We Don't Have
TTITLE2=More Than Satisfied
TTITLE3=I'm Crying Teardrops
TTITLE4=One Man's Angel
TTITLE5=You Can't Take the Texas Out of Me
TTITLE6=A Song I Can Cry To
TTITLE7=Reading Mamas Bible
TTITLE8=Johnny Getting Out of Jail Barbeque
TTITLE9=My Heart Ain't Helping
TTITLE10=I'm Not That Good at Goodbye
TTITLE11=The Way it Was
EXTD=
EXTT0=
EXTT1=
EXTT2=
EXTT3=
EXTT4=
EXTT5=
EXTT6=
EXTT7=
EXTT8=
EXTT9=
EXTT10=
EXTT11=
PLAYORDER=
